<?xml version="1.0" encoding="UTF-8" standalone="no"?>
<!-- Created with Inkscape (http://www.inkscape.org/) -->

<svg
   version="1.1"
   id="svg1"
   width="725.19629"
   height="396.77963"
   viewBox="0 0 725.19629 396.77963"
   xmlns="http://www.w3.org/2000/svg"
   xmlns:svg="http://www.w3.org/2000/svg">
  <defs
     id="defs1" />
  <g
     id="g1"
     transform="translate(-134.72819,-279.95981)">
    <g
       id="g30">
      <g
         id="g29">
        <g
           id="g25"
           transform="translate(1059.9332,-51.112972)">
          <path
             style="fill:#4ce8c4"
             d="m -727.49902,727.36323 c -1.1,-0.27922 -2.83357,-1.24764 -3.85238,-2.15207 -4.32031,-3.83524 -4.64762,-5.97795 -4.64762,-30.42514 0,-22.98195 0.0379,-23.409 2.25,-25.37499 4.45387,-3.95828 15.64134,-11.34899 17.17919,-11.34899 1.63494,0 1.58011,-1.07727 1.98495,39 l 0.0859,8.5 50.62695,0.2591 50.62695,0.2591 0.50939,-24.2591 c 0.58063,-27.65197 1.20389,-31.0721 8.29743,-45.53189 7.30042,-14.88153 20.90241,-27.14116 36.65001,-33.0331 11.75363,-4.39759 19.15231,-5.19411 48.24711,-5.19411 h 27.54216 v -68 c 0,-37.4 -0.3375,-68.00047 -0.75,-68.00104 -0.4125,-5.7e-4 -14.25,-0.14371 -30.75,-0.31809 -27.51613,-0.29081 -30.60615,-0.49963 -37.321,-2.52215 -25.25429,-7.60659 -42.95158,-25.26024 -49.78149,-49.65872 -1.27371,-4.55006 -1.82675,-12.16225 -2.28855,-31.5 l -0.60896,-25.5 -48.5,-0.27716 c -26.675,-0.15244 -49.5125,-0.0314 -50.75,0.26905 -2.24449,0.54488 -2.25,0.59765 -2.25,21.52716 0,11.53953 -0.34946,20.98095 -0.77657,20.98095 -0.88606,0 -15.56704,-10.096 -18.37122,-12.63374 -1.68461,-1.52455 -1.85221,-3.47488 -1.85221,-21.55336 0,-14.91666 0.35467,-20.72599 1.42122,-23.2786 2.8188,-6.74634 0.53438,-6.53592 70.77912,-6.51956 68.06993,0.0159 66.16593,-0.1281 70.20326,5.30796 2.00324,2.69727 2.10604,4.11923 2.31347,32 0.23481,31.55955 0.71431,35.46412 5.59347,45.54759 5.62268,11.62004 15.90602,19.99866 29.68946,24.19026 5.92794,1.80271 9.00822,1.95303 35,1.70806 l 28.5,-0.26861 0.5,-21.72969 0.5,-21.7297 2.77118,-2.7703 2.77118,-2.77031 27.91354,-0.29423 27.91353,-0.29423 3.31528,2.9621 3.31529,2.9621 0.26077,134.17136 0.26077,134.17136 -3.41077,3.41077 -3.41077,3.41077 h -26.64966 c -29.29476,0 -31.11243,-0.3187 -34.03342,-5.96727 -1.21495,-2.34946 -1.51692,-7.12372 -1.51692,-23.98307 v -21.04966 h -28.2899 c -31.26669,0 -35.32959,0.54793 -45.92065,6.19291 -6.50471,3.46697 -15.67332,12.69896 -18.90721,19.03791 -5.16067,10.11576 -5.22706,10.60987 -5.81968,43.3162 -0.50388,27.80836 -0.75323,31.3377 -2.39034,33.83353 -3.55801,5.42428 -3.10223,5.38914 -70.17222,5.40949 -34.1,0.0103 -62.9,-0.20964 -64,-0.48885 z m 283,-196.80119 v -119 h -13 -13 l -0.21681,118 c -0.11924,64.9 -0.0157,118.57601 0.23014,119.28003 0.33874,0.97013 3.5385,1.21223 13.2168,1 l 12.76987,-0.28003 z m -382.30191,148.82719 c -4.06515,-2.00342 -6.19809,-5.91876 -6.19809,-11.37753 0,-3.38589 0.62579,-4.77545 3.4,-7.54966 2.85139,-2.85139 4.12047,-3.4 7.86514,-3.4 6.69046,0 12.74152,5.79879 12.73112,12.20034 -0.005,3.34888 -3.45127,8.46648 -6.90238,10.25111 -3.79529,1.96263 -6.72917,1.92916 -10.89579,-0.12426 z m 64.78667,-21.57719 c -10.636,-5.39106 -11.21126,-19.63735 -1.06894,-26.47225 5.274,-3.55415 9.32726,-3.86515 14.82641,-1.13758 11.84921,5.87716 11.76168,22.54772 -0.14677,27.95595 -5.38511,2.44565 -8.24638,2.37289 -13.6107,-0.34612 z m 71.01524,-30.81515 c -7.91249,-3.30719 -13.07565,-13.77742 -10.95233,-22.2099 3.27079,-12.9895 17.9103,-18.94255 29.11244,-11.83836 11.30222,7.16765 11.57538,22.7412 0.5527,31.51042 -3.14627,2.50304 -4.83863,3.06116 -10,3.29785 -3.41705,0.1567 -7.33781,-0.18531 -8.71281,-0.76001 z m -39.08666,-1.21665 c -7.29167,-5.59836 -3.47021,-17.7182 5.58666,-17.7182 8.31816,0 12.72379,10.50348 6.86363,16.36364 -2.01075,2.01076 -3.61252,2.62881 -6.75,2.60456 -2.2625,-0.0175 -4.82763,-0.57999 -5.70029,-1.25 z m 96.33929,-5.9682 c -8.68847,-6.07263 -8.16546,-19.17433 0.98823,-24.7554 9.12025,-5.56069 22.10007,1.61882 22.08731,12.21712 -0.0108,8.96201 -5.84932,14.77784 -14.84226,14.78454 -3.58369,0.003 -5.93243,-0.63812 -8.23328,-2.24626 z m 263.49534,-1.17675 c -12.18329,-4.34779 -19.20103,-17.74013 -15.75172,-30.05988 1.57952,-5.64147 8.07901,-13.18834 13.46504,-15.6349 9.24157,-4.1979 23.27961,-1.01792 29.08054,6.5875 12.48373,16.367 1.14737,40.44625 -19.04183,40.44625 -2.2,0 -5.68842,-0.60254 -7.75203,-1.33897 z m 68.25203,-0.58872 c -9.95607,-4.64104 -15.36043,-12.72784 -15.36043,-22.98453 0,-13.97736 10.5321,-24.362 24.52988,-24.18643 13.4475,0.16867 23.83055,10.7025 23.83055,24.17661 0,13.32462 -9.58221,23.63163 -22.92761,24.66186 -4.22889,0.32646 -6.65734,-0.0756 -10.07239,-1.66751 z m 71.99352,1.13617 c -5.0794,-1.65662 -8.87809,-4.16791 -12.2326,-8.0869 -10.64603,-12.43749 -5.92291,-32.45069 9.14865,-38.76543 4.32354,-1.81149 13.89214,-1.79708 18.24664,0.0275 18.79897,7.87689 19.82549,35.4377 1.6678,44.77829 -4.21017,2.16578 -13.13678,3.25123 -16.83049,2.04655 z m -591.60541,-1.10077 c -3.59758,-1.45359 -6.38811,-5.9332 -6.38811,-10.25479 0,-5.5104 5.12532,-10.76514 10.5,-10.76514 5.49242,0 10.5,5.24603 10.5,11 0,3.44314 -0.6127,4.8127 -3.4,7.6 -3.49514,3.49514 -6.79046,4.20639 -11.21189,2.41993 z m -63.41285,-6.26993 c -2.60437,-1.31725 -5.69772,-4.04909 -7.46189,-6.58983 -3.99634,-5.75549 -4.26583,-14.58857 -0.62481,-20.47986 6.50014,-10.51745 19.5264,-12.52293 28.74829,-4.42601 4.72474,4.14838 6.5208,8.0146 6.57598,14.15556 0.0727,8.08532 -4.50383,14.72584 -12.43071,18.03709 -5.15053,2.1515 -9.58811,1.94263 -14.80686,-0.69695 z m 118.52474,-1.16736 c -6.2025,-2.76853 -11.52341,-11.02038 -11.47804,-17.80052 0.0288,-4.30743 3.00868,-10.61227 6.60194,-13.9685 7.50982,-7.01445 18.71562,-6.44819 26.06476,1.31714 3.81539,4.03145 5.31134,7.6561 5.31134,12.86924 0,5.38994 -1.52198,8.88544 -5.77456,13.26237 -5.34448,5.50074 -14.02631,7.31049 -20.72544,4.32027 z m 172.5,-22.17694 c -15.69933,-6.80015 -17.57843,-28.87274 -3.26514,-38.35347 8.18019,-5.41833 20.44135,-4.00503 26.89816,3.10045 8.85595,9.74565 7.58659,25.26512 -2.64648,32.35665 -6.65245,4.61015 -14.52243,5.69629 -20.98654,2.89637 z m 55.35309,-5.33204 c -6.8137,-4.15475 -6.25139,-14.24705 0.9861,-17.69837 8.47645,-4.04213 17.30657,4.82307 13.63437,13.68854 -2.31646,5.59244 -9.01302,7.42904 -14.62047,4.00983 z m -107.45521,-2.34359 c -4.81126,-3.21413 -7.10558,-8.1051 -6.5929,-14.05456 0.52267,-6.06529 3.01143,-9.52984 9.00475,-12.53534 7.82706,-3.92507 16.19194,-0.78163 19.83483,7.45374 2.91877,6.59835 1.84459,11.66236 -3.63914,17.15609 -3.96035,3.96758 -4.60667,4.25 -9.72596,4.25 -4.03646,0 -6.38045,-0.59907 -8.88158,-2.26993 z m -68.44468,-1.99631 c -7.83817,-3.17396 -12.8101,-7.77578 -16.99917,-15.73376 -2.80154,-5.32209 -2.6354,-17.11704 0.32577,-23.12728 5.2133,-10.58138 14.99185,-16.86205 26.2202,-16.84099 11.41469,0.0214 20.14738,5.45964 25.17883,15.67997 2.5908,5.26267 3.18135,7.65682 3.13386,12.70496 -0.10095,10.73041 -6.32416,20.89749 -15.81269,25.83375 -4.83891,2.51736 -17.40532,3.36285 -22.0468,1.48335 z m -101.9718,-11.12733 c -3.42904,-1.49413 -9.15559,-7.61927 -10.54839,-11.28262 -3.64785,-9.59456 3.71411,-22.43065 13.93694,-24.30003 5.23146,-0.95664 12.6041,1.09815 16.15845,4.50344 4.05801,3.88782 6.35916,10.34193 5.71739,16.03574 -1.26793,11.24907 -15.08751,19.47782 -25.26439,15.04347 z m 274.53853,-14.35798 c -7.20786,-3.62135 -9.9962,-12.28152 -6.39665,-19.86701 6.57079,-13.84691 27.37672,-8.64958 27.37672,6.83871 0,7.83824 -6.80856,14.77674 -14.5,14.77674 -1.65,0 -4.56603,-0.7868 -6.48007,-1.74844 z m 168.2929,-1.24217 c -6.0755,-3.48444 -9.7118,-7.88605 -11.95594,-14.47225 -5.33703,-15.66331 6.58856,-31.94208 23.3169,-31.82824 10.90329,0.0742 19.35794,6.06942 22.79831,16.16635 7.2532,21.28697 -15.14044,41.04187 -34.15927,30.13414 z m 71.21077,0.93061 c -9.59371,-4.78533 -14.88403,-12.93793 -14.88403,-22.93689 0,-11.26142 7.05238,-20.40104 18.25495,-23.65771 19.4842,-5.66421 36.97626,16.16536 27.6697,34.53098 -2.71284,5.35353 -8.21489,10.665 -13.20938,12.75183 -4.75429,1.98647 -13.116,1.66374 -17.83124,-0.68821 z m 68.9764,-0.3242 c -9.34681,-4.42622 -14.5,-12.4626 -14.5,-22.61269 0,-9.64268 4.13323,-16.60444 12.94023,-21.79572 3.61913,-2.13329 5.65383,-2.60618 11.00284,-2.5572 14.06973,0.12883 24.07149,10.20459 24.04716,24.22505 -0.0313,18.01589 -17.87766,30.13396 -33.49023,22.74056 z m -416.8807,-13.64711 c -6.96533,-2.08551 -11.0197,-8.75335 -10.41401,-17.12693 0.34487,-4.76786 0.96178,-6.40794 3.35859,-8.92894 3.88981,-4.09137 7.557,-5.90971 11.91858,-5.90971 5.4849,0 10.08253,2.41681 13.45553,7.07311 5.03154,6.94584 4.03849,14.81773 -2.67399,21.19659 -4.39098,4.17274 -9.79123,5.44848 -15.6447,3.69588 z m 69.27397,-5.40509 c -5.48919,-3.10439 -7.87372,-10.99147 -4.96582,-16.42494 3.01851,-5.64012 12.03193,-7.79715 17.50512,-4.1892 3.90278,2.57273 5.48913,5.66625 5.53199,10.78788 0.0526,6.28295 -3.9095,10.39098 -10.52395,10.9116 -3.16059,0.24877 -5.87978,-0.14226 -7.54734,-1.08534 z m -202.54018,-6.48683 c -4.14098,-2.52502 -5.94956,-7.73632 -4.35825,-12.55802 1.62979,-4.93833 5.31241,-7.51564 10.73881,-7.51564 3.67936,0 4.96091,0.53203 7.29163,3.02706 3.78751,4.05455 4.54408,7.97084 2.40903,12.47012 -2.96266,6.24335 -10.04306,8.25833 -16.08122,4.57648 z m -76.11223,-4.06826 c -4.56074,-2.78071 -7.23263,-7.5888 -7.23713,-13.02326 -0.009,-11.35498 12.98421,-18.87261 22.00644,-12.73214 5.38012,3.66168 7.37444,7.10975 7.37444,12.75 0,11.34521 -12.66591,18.78411 -22.14375,13.0054 z m 332.25914,-9.0172 c -4.47429,-0.95586 -7.14538,-2.65118 -9.84985,-6.25163 -4.98397,-6.63514 -4.26578,-14.80907 1.8194,-20.70706 3.00779,-2.91526 4.32996,-3.45386 9.26932,-3.7759 7.178,-0.46801 11.81562,1.80538 14.99468,7.35049 6.67165,11.63713 -3.38829,26.12827 -16.23355,23.3841 z m -389,-5.98329 c -6.49243,-3.23569 -9.13133,-8.49835 -8.6508,-17.25203 0.22133,-4.03196 6.48376,-10.49618 11.46904,-11.83857 10.43153,-2.80892 21.21081,7.12158 19.22431,17.71054 -0.87289,4.65291 -6.79465,11.07308 -11.39101,12.34976 -5.04609,1.40158 -6.08295,1.30719 -10.65154,-0.9697 z m 225.1193,0.97098 c -9.05945,-2.74494 -13.5091,-14.43413 -8.3693,-21.98606 4.93263,-7.24753 12.30465,-9.36089 19.54422,-5.60278 9.43084,4.89561 9.74542,21.21868 0.5,25.94397 -3.99211,2.04034 -8.34544,2.65368 -11.67492,1.64487 z m 71.8807,-3.81645 c -13.62871,-6.52548 -17.5658,-22.35569 -8.3413,-33.53859 7.49222,-9.08284 22.23146,-10.1991 30.67497,-2.32312 7.07516,6.59961 8.63517,18.17458 3.55656,26.38904 -5.69062,9.20437 -17.45832,13.50991 -25.89023,9.47267 z m -128.26112,-8.49431 c -15.72308,-5.70229 -19.59079,-25.24655 -7.40724,-37.4301 4.51717,-4.51718 8.83619,-6.23503 15.67608,-6.23503 12.42063,0 21.52353,9.41984 21.47031,22.21788 -0.0647,15.5595 -15.42642,26.63806 -29.73915,21.44725 z m 174.05967,-1.56524 c -11.4356,-7.18489 -6.05773,-25.09989 7.53468,-25.09989 8.07711,0 14.78486,9.56709 12.19972,17.40015 -2.69398,8.16285 -12.75156,12.087 -19.7344,7.69974 z m -245.68307,-2.57219 c -4.72514,-1.68413 -11.04552,-7.61622 -13.88043,-13.0277 -2.976,-5.68079 -2.91902,-15.4228 0.127,-21.71503 2.56416,-5.29687 7.75823,-10.29228 13.06522,-12.56555 4.58968,-1.966 14.55577,-1.966 19.14545,0 5.00752,2.14499 10.65897,7.35969 13.20649,12.1859 3.00799,5.69855 3.022,16.48053 0.0287,22.09468 -6.23038,11.68557 -19.80365,17.26509 -31.69245,13.0277 z m 447.88452,-4.39504 c -9.09695,-4.14688 -14.23326,-11.148 -15.22447,-20.75192 -1.44361,-13.9873 10.4382,-26.77883 24.75081,-26.64583 7.12874,0.0663 11.83581,2.09033 16.83094,7.23747 7.65542,7.88839 9.18703,20.15718 3.68781,29.54089 -6.24543,10.65702 -19.60453,15.37877 -30.04509,10.61939 z m 69.5,-0.2112 c -12.12842,-5.4837 -18.03015,-17.42617 -14.54172,-29.42595 3.82552,-13.15932 17.19174,-20.77412 29.95294,-17.06434 16.89879,4.91261 23.32056,26.17598 11.92585,39.48814 -7.08366,8.27567 -18.2146,11.12676 -27.33707,7.00215 z m 70.62749,0.61037 c -9.61067,-3.4258 -15.64216,-11.69066 -16.34979,-22.40388 -0.38356,-5.80691 -0.0872,-7.30841 2.39225,-12.12108 7.42067,-14.40356 25.10937,-18.11491 36.8947,-7.74105 6.06193,5.33593 8.38518,10.44898 8.41338,18.5163 0.0374,10.68789 -4.73793,18.2181 -14.47803,22.83057 -5.61876,2.66079 -11.14238,2.96169 -16.87251,0.91914 z m -419.51742,-19.92733 c -9.61531,-5.32936 -3.99129,-19.24281 6.63472,-16.41387 6.84736,1.82296 8.69162,10.23944 3.29989,15.05937 -3.36087,3.00445 -6.24763,3.39803 -9.93461,1.3545 z m -41.47281,-8.06931 c -8.17117,-2.91294 -14.2574,-12.72955 -13.40328,-21.61846 0.593,-6.1715 4.85483,-13.28536 9.99826,-16.68912 3.53475,-2.33918 5.15227,-2.72761 11.35859,-2.72761 6.44775,0 7.70878,0.33166 11.56454,3.04159 11.55117,8.11847 12.78479,22.61349 2.77633,32.62195 -6.58787,6.58787 -13.92431,8.35552 -22.29444,5.37165 z m -164.3046,-16.25565 c -1.19203,-0.21834 -3.31133,-1.4572 -4.70956,-2.75303 -4.79506,-4.44391 -4.65589,-10.64756 0.35119,-15.65464 4.02491,-4.02492 9.72429,-4.00649 14.25993,0.0461 2.7842,2.48768 3.26578,3.59081 3.26578,7.48077 0,3.75849 -0.52883,5.07414 -3,7.4636 -3.09748,2.99506 -6.40427,4.10646 -10.16734,3.4172 z m 100.16734,-10.88222 c -7.57438,-4.12788 -12.43775,-11.5141 -12.47804,-18.95097 -0.0315,-5.81334 4.15174,-13.60172 9.17565,-17.08329 3.67748,-2.5485 4.98206,-2.86306 11.87407,-2.86306 7.13115,0 8.04619,0.24152 11.5855,3.05797 11.28521,8.98033 11.06837,25.40793 -0.44549,33.74852 -3.49847,2.53428 -5.42344,3.1604 -10.49786,3.41455 -4.34994,0.21787 -7.11371,-0.17919 -9.21383,-1.32372 z m -60.11936,-18.30691 c -3.02901,-1.84702 -5.38064,-6.36551 -5.38064,-10.3385 0,-3.41828 3.17564,-8.79138 6.08518,-10.29596 8.75552,-4.52765 17.91482,1.4002 17.91482,11.59439 0,3.38589 -0.6258,4.77545 -3.4,7.54966 -2.82656,2.82656 -4.13367,3.39937 -7.75,3.39626 -2.50948,-0.002 -5.66983,-0.80854 -7.46936,-1.90585 z m -50.20102,-27.77216 c -6.76248,-3.33242 -10.50945,-11.7588 -8.25985,-18.57516 0.61484,-1.863 2.67942,-4.90075 4.58794,-6.75056 2.96915,-2.87782 4.30164,-3.41667 9.23116,-3.73306 4.51944,-0.29006 6.46356,0.0712 9.02027,1.67625 4.72515,2.96632 7.23268,7.64467 7.23712,13.5024 0.009,11.32808 -11.77806,18.82694 -21.81664,13.88013 z"
             id="path29" />
          <path
             style="fill:#1082c6"
             d="m -731.59902,723.66204 -3.4,-3.4 v -24.42568 c 0,-28.01091 -1.22768,-24.41442 11.33723,-33.21241 4.01657,-2.81242 7.20596,-4.41872 7.73103,-3.89365 0.49159,0.49159 1.01484,11.45484 1.16277,24.36277 l 0.26897,23.46897 h 51 51 l 0.57566,-25.5 c 0.51601,-22.85768 0.81119,-26.22534 2.84866,-32.5 6.02761,-18.56278 18.26195,-33.36837 34.07568,-41.23727 15.06757,-7.49762 20.03724,-8.26273 53.66928,-8.26273 h 29.29261 l 0.54491,-2.25 c 0.2997,-1.2375 0.42077,-32.175 0.26905,-68.75 l -0.27585,-66.5 -32,-0.52558 c -31.84403,-0.52301 -32.039,-0.53922 -40,-3.32581 -23.88167,-8.35928 -38.35311,-23.02855 -46.08872,-46.71874 -1.44114,-4.41349 -1.87955,-10.39024 -2.34215,-31.92987 l -0.56913,-26.5 -51.25,-0.25908 -51.25,-0.25908 v 21.00908 c 0,14.26552 -0.34371,21.00908 -1.07081,21.00908 -1.14483,0 -12.93947,-8.0254 -16.67919,-11.34899 -2.19983,-1.95504 -2.25,-2.47286 -2.25,-23.21957 v -21.21993 l 2.90121,-3.10575 2.90121,-3.10576 h 65.4117 65.41169 l 2.9371,3.06344 2.93709,3.06345 0.5304,31.68655 c 0.49091,29.32754 0.69216,32.12078 2.70328,37.51899 6.35764,17.06508 17.96014,27.48764 35.76094,32.12416 7.66589,1.99671 59.36249,2.2863 61.30538,0.34341 0.8559,-0.85591 1.2,-7.12559 1.2,-21.86514 0,-19.33079 0.1326,-20.83372 2.05361,-23.27589 1.12949,-1.43592 3.71699,-3.03722 5.75,-3.55846 2.03301,-0.52124 14.79777,-0.86959 28.36613,-0.77411 24.62718,0.1733 24.67421,0.17779 27.25152,2.59934 1.41998,1.33416 3.02858,4.03416 3.57468,6 0.63352,2.28054 0.99492,50.36867 0.99848,132.85638 0.005,107.53089 -0.22609,129.83658 -1.3714,132.57768 -2.53888,6.07641 -5.30309,6.6402 -32.55627,6.6402 -25.90072,0 -29.21868,-0.52342 -32.43606,-5.11687 -1.38007,-1.97032 -1.63069,-5.50895 -1.63069,-23.02385 0,-11.38264 -0.27315,-21.40751 -0.60699,-22.27749 -0.53306,-1.38914 -3.91281,-1.57999 -27.75,-1.56701 -29.62373,0.0161 -35.12398,0.71082 -45.37678,5.73113 -10.9477,5.36056 -19.96344,15.81803 -24.40535,28.30806 -2.14503,6.03152 -2.32679,8.42879 -2.82666,37.27999 l -0.53422,30.83395 -3.26578,2.91605 -3.26578,2.91604 h -64.58422 -64.58422 z m 287.4,-73.8 c 1.623,-1.623 1.75584,-237.33843 0.13432,-238.34059 -1.30379,-0.80579 -23.74608,-1.46887 -25.60259,-0.75646 -1.90852,0.73236 -1.98974,238.86487 -0.0817,239.63477 2.74828,1.10896 24.35812,0.65416 25.55,-0.53772 z m -381.78609,28.44845 c -5.79878,-2.90838 -7.70115,-9.5836 -4.34864,-15.25894 1.97445,-3.34248 5.19189,-4.98951 9.74692,-4.98951 10.68307,0 13.80913,15.81991 4.04191,20.45476 -4.12886,1.95927 -5.16767,1.93657 -9.44019,-0.20631 z m 96.84215,-52.76485 c -7.78108,-4.2271 -4.32746,-16.6836 4.62559,-16.6836 9.17914,0 12.5456,12.54895 4.48471,16.71739 -3.53635,1.82872 -5.69661,1.82071 -9.1103,-0.0338 z m 36.71896,-0.75005 c -9.56122,-5.44091 -11.48851,-19.84235 -3.76141,-28.10671 12.40724,-13.26989 34.62721,-1.34866 30.20683,16.20625 -1.54773,6.14659 -4.21884,9.60045 -9.34315,12.08108 -5.66046,2.74019 -12.0889,2.67229 -17.10227,-0.18062 z m 320.92498,-7.07025 c -8.69411,-3.94918 -14.48963,-13.02738 -14.46827,-22.6633 0.0406,-18.31937 19.84575,-29.70827 35.60341,-20.47366 8.16796,4.78674 11.85756,12.395 11.17897,23.052 -0.48566,7.62724 -3.86178,13.19509 -10.85328,17.89917 -3.73331,2.51187 -5.60247,3.04598 -11.46083,3.27493 -4.33808,0.16954 -8.14083,-0.24463 -10,-1.08914 z m 69,-0.56605 c -4.97701,-2.31286 -10.90795,-8.41047 -12.95118,-13.31513 -3.88735,-9.33139 -0.27402,-22.14251 7.80086,-27.6581 13.39606,-9.15026 28.74272,-5.24889 36.37005,9.24586 2.44296,4.64252 2.19542,15.05934 -0.48061,20.2248 -2.45314,4.73524 -8.14565,10.05049 -12.88428,12.03042 -4.63081,1.93487 -13.09371,1.68468 -17.85484,-0.52785 z m 69,0.003 c -8.68503,-4.02969 -13.51402,-12.02593 -13.47804,-22.31803 0.0276,-7.90561 2.37381,-13.25312 7.88406,-17.96968 17.61508,-15.07786 44.13567,2.33294 37.63183,24.70534 -1.91658,6.59282 -7.24927,12.98024 -13.03785,15.61656 -5.23229,2.38296 -13.82374,2.3675 -19,-0.0342 z m -589.38313,-0.73084 c -2.99033,-2.09451 -5.08013,-7.11069 -4.41404,-10.5951 1.85507,-9.70417 16.21862,-10.60231 19.31902,-1.208 1.3607,4.12297 0.59043,7.03985 -2.82129,10.68379 -3.01799,3.22341 -8.37166,3.71932 -12.08369,1.11931 z m 54.21996,-7.88367 c -5.73774,-3.43925 -8.73286,-9.69657 -8.12867,-16.98224 1.46815,-17.70398 23.82227,-23.23838 33.15722,-8.20901 3.16817,5.10079 3.87907,12.4402 1.62781,16.80576 -1.76848,3.42938 -6.04667,7.84513 -9.19353,9.48913 -4.41261,2.30525 -12.64359,1.78506 -17.46283,-1.10364 z m 232.02017,-25.43937 c -8.60478,-3.62442 -6.11702,-17.44627 3.14011,-17.44627 4.66482,0 9.50289,4.76533 9.50289,9.36001 0,5.81235 -7.16375,10.39417 -12.643,8.08626 z m -109.3162,-3.66538 c -6.29486,-5.29679 -7.7844,-12.52325 -3.7908,-18.39106 3.54881,-5.21428 7.07649,-7.32316 12.25,-7.32316 10.67439,0 17.13633,11.40075 12.04375,21.24872 -3.70902,7.17245 -14.49427,9.52146 -20.50295,4.4655 z m -65.26118,-0.28663 c -8.58005,-1.77532 -18.49171,-10.79567 -20.73402,-18.86951 -1.99388,-7.17936 -1.30385,-14.3885 2.01242,-21.02496 5.16451,-10.33509 13.54765,-15.56737 24.94198,-15.56737 11.85962,0 21.77993,6.81799 25.88519,17.79029 2.50678,6.69996 2.65822,11.38443 0.59287,18.33921 -1.87338,6.30834 -9.77317,15.33876 -15.38131,17.58269 -4.94327,1.97791 -12.51613,2.74304 -17.31713,1.74965 z m -106.63039,-12.79073 c -6.47144,-3.18851 -10.55378,-12.25617 -8.9067,-19.78348 1.7126,-7.82669 9.63961,-14.47612 17.25747,-14.47612 4.59603,0 10.92604,3.33702 14.01693,7.38938 2.9186,3.82648 4.32187,11.08848 3.09064,15.99412 -0.89167,3.55268 -6.45932,9.61268 -10.30983,11.22153 -4.3565,1.82026 -11.06338,1.66732 -15.14851,-0.34543 z m 450.20896,-12.20704 c -20.55009,-5.2303 -24.92277,-33.43372 -6.91018,-44.57005 4.2617,-2.63481 5.81112,-3.0226 11.97357,-2.99674 8.39989,0.0352 13.71571,2.38866 18.50225,8.19128 7.20429,8.73363 6.86185,23.6292 -0.72688,31.61824 -6.15998,6.48491 -15.44582,9.63888 -22.83876,7.75727 z m 69.63533,0.0204 c -7.90664,-2.56686 -16.09921,-10.23354 -17.91203,-16.76224 -2.66283,-9.5899 -0.69302,-17.09702 6.26481,-23.87569 9.6205,-9.37277 21.96612,-10.03922 31.69576,-1.711 5.883,5.03562 8.31769,10.36987 8.32157,18.23199 0.004,7.25687 -1.67957,11.47068 -6.72559,16.83763 -5.71061,6.07381 -15.36082,9.31929 -21.64452,7.27931 z m 69.50648,-0.0305 c -11.57205,-2.90016 -18.96816,-12.53312 -18.87726,-24.58644 0.0559,-7.40798 2.66078,-12.87491 8.52741,-17.89653 14.0534,-12.02919 35.42136,-3.64257 38.41478,15.07725 2.42591,15.1708 -13.77163,30.98787 -28.06493,27.40572 z m -424.0887,-16.91798 c -7.5656,-4.75897 -10.17919,-12.91106 -6.53393,-20.38007 2.8754,-5.89159 7.4197,-8.78839 13.78662,-8.78839 6.43152,0 11.02547,2.92878 14.12967,9.00807 3.47511,6.80569 1.34275,14.23007 -5.57896,19.42461 -3.75897,2.821 -11.88682,3.19942 -15.8034,0.73578 z m -131.6228,-12.06612 c -2.68377,-2.39795 -3.24305,-3.62279 -3.24305,-7.10234 0,-8.95639 11.26415,-13.58028 16.86565,-6.92327 3.71333,4.41304 3.57787,10.08815 -0.33418,14.00019 -3.98267,3.98267 -8.84907,3.99198 -13.28842,0.0254 z m -72.7885,-1.80857 c -4.60958,-1.68505 -9.00218,-8.27381 -8.99627,-13.49411 0.007,-6.5642 7.00267,-13.78762 13.36011,-13.79592 3.85826,-0.005 9.93937,3.54669 11.97623,6.99481 2.277,3.85466 2.11345,10.53157 -0.35584,14.52696 -3.12122,5.05024 -10.58262,7.74285 -15.98423,5.76826 z m 327,-10.99548 c -3.06722,-1.11201 -8.06986,-6.84401 -9.0054,-10.31833 -1.60385,-5.95623 1.1168,-12.85759 6.31922,-16.02973 7.08533,-4.32024 17.18587,-1.39173 20.93462,6.06971 3.36533,6.69827 1.23373,14.44797 -5.14633,18.71013 -3.27655,2.18888 -9.37636,2.91898 -13.10211,1.56822 z m -387.01561,-5.15239 c -5.03191,-2.67755 -8.16443,-8.48155 -7.68765,-14.24381 1.2477,-15.07926 21.72434,-18.91415 28.19407,-5.28021 6.09973,12.85424 -7.93287,26.21459 -20.50642,19.52402 z m 222.43557,-1.03158 c -11.33956,-6.91485 -6.20003,-25.13237 7.08004,-25.09584 5.18158,0.0143 8.39533,1.70247 11.21998,5.89397 8.01004,11.8861 -6.06982,26.65984 -18.30002,19.20187 z m 74.58713,-2.83912 c -16.04728,-8.39147 -15.34115,-29.80801 1.21079,-36.72215 9.53553,-3.98322 20.00483,0.15021 24.98526,9.86455 2.95206,5.758 2.22299,15.02386 -1.5738,20.00171 -3.76374,4.93452 -9.18982,8.30352 -14.62934,9.08322 -3.77392,0.54095 -5.3863,0.18157 -9.99291,-2.22733 z m -129.82424,-8.82962 c -13.56813,-6.86782 -15.52671,-24.91239 -3.81971,-35.19128 10.16921,-8.92868 26.05397,-6.1106 32.38697,5.7457 3.36763,6.30471 2.91449,15.88622 -1.03346,21.85198 -6.37057,9.62659 -17.46988,12.68769 -27.5338,7.5936 z m 381.6377,-5.80913 c -10.94315,-3.02011 -17.82055,-12.21201 -17.82055,-23.81779 0,-6.41976 2.16433,-11.36839 7.23922,-16.55203 12.38933,-12.65484 33.21038,-7.5845 38.83458,9.45699 1.79575,5.44119 0.66297,15.15371 -2.31399,19.84016 -3.058,4.81402 -5.08383,6.64552 -10.25981,9.27566 -5.48787,2.78861 -10.15027,3.32297 -15.67945,1.79701 z m 65.65725,-1.50753 c -8.0654,-3.66385 -13.28602,-10.84414 -14.17177,-19.49144 -0.82435,-8.0478 1.11519,-13.35359 7.04702,-19.27782 9.83278,-9.82016 24.41326,-9.89513 33.1987,-0.1707 4.93604,5.46361 6.76061,10.1682 6.72929,17.35124 -0.0419,9.62084 -5.9236,18.32337 -14.9262,22.0849 -4.58867,1.91727 -13.08322,1.6815 -17.87704,-0.49618 z m 69.94448,0.45265 c -9.01239,-3.9243 -14.43721,-12.55653 -14.40032,-22.91447 0.0276,-7.76359 2.40231,-13.16249 7.83462,-17.81235 14.32308,-12.26002 35.69045,-4.04696 38.7173,14.88192 1.53708,9.6124 -4.88553,21.22871 -14.03518,25.38486 -4.76974,2.16661 -13.6777,2.39282 -18.11642,0.46004 z m -458.92228,-28.08432 c -9.17867,-3.24687 -15.12397,-14.62536 -12.51348,-23.9491 3.41547,-12.19887 16.48556,-18.69694 27.52205,-13.68317 10.39635,4.72296 14.9898,17.86121 9.70027,27.7448 -1.9347,3.61501 -8.93689,9.22092 -12.88806,10.3181 -4.93046,1.36911 -6.94001,1.2959 -11.82078,-0.43063 z m -167.72486,-17.05605 c -5.67927,-3.08203 -6.55866,-10.41354 -1.87748,-15.65269 2.39794,-2.68377 3.62279,-3.24305 7.10234,-3.24305 3.47955,0 4.70439,0.55928 7.10233,3.24305 7.94703,8.89426 -1.85233,21.33719 -12.32719,15.65269 z m 106.46045,-8.38972 c -9.27199,-2.28583 -15.23559,-10.21384 -15.23559,-20.25419 0,-13.37142 14.0529,-23.10403 26.49752,-18.35138 15.38071,5.87394 17.44493,27.23067 3.45385,35.73409 -5.06998,3.08141 -9.97887,4.03928 -14.71578,2.87148 z m -61.73559,-18.99684 c -5.44687,-2.22935 -7.70518,-9.3301 -4.78354,-15.04073 4.78094,-9.3448 18.29608,-7.16331 19.94643,3.21957 1.43485,9.02716 -6.62916,15.31395 -15.16289,11.82116 z m -53.25914,-29.04924 c -7.06681,-4.30868 -9.37653,-13.57168 -4.99086,-20.01557 3.71032,-5.4516 7.25857,-7.49937 12.8504,-7.41625 7.40126,0.11001 13.35238,5.27945 14.54609,12.63546 0.77752,4.79125 -2.76076,12.27981 -7.033,14.88494 -4.13134,2.51921 -11.16196,2.4787 -15.37263,-0.0886 z"
             id="path28" />
          <path
             style="fill:#2cb952"
             d="m -731.59902,723.66204 -3.4,-3.4 v -24.42568 c 0,-28.01091 -1.22768,-24.41442 11.33723,-33.21241 4.01657,-2.81242 7.20596,-4.41872 7.73103,-3.89365 0.49159,0.49159 1.01484,11.45484 1.16277,24.36277 l 0.26897,23.46897 h 51 51 l 0.57566,-25.5 c 0.51601,-22.85768 0.81119,-26.22534 2.84866,-32.5 6.02761,-18.56278 18.26195,-33.36837 34.07568,-41.23727 15.06757,-7.49762 20.03724,-8.26273 53.66928,-8.26273 h 29.29261 l 0.54491,-2.25 c 0.2997,-1.2375 0.42077,-32.175 0.26905,-68.75 l -0.27585,-66.5 -32,-0.52558 c -31.84403,-0.52301 -32.039,-0.53922 -40,-3.32581 -23.88167,-8.35928 -38.35311,-23.02855 -46.08872,-46.71874 -1.44114,-4.41349 -1.87955,-10.39024 -2.34215,-31.92987 l -0.56913,-26.5 -51.25,-0.25908 -51.25,-0.25908 v 21.00908 c 0,14.26552 -0.34371,21.00908 -1.07081,21.00908 -1.14483,0 -12.93947,-8.0254 -16.67919,-11.34899 -2.19983,-1.95504 -2.25,-2.47286 -2.25,-23.21957 v -21.21993 l 2.90121,-3.10575 2.90121,-3.10576 h 65.4117 65.41169 l 2.9371,3.06344 2.93709,3.06345 0.5304,31.68655 c 0.49091,29.32754 0.69216,32.12078 2.70328,37.51899 6.35764,17.06508 17.96014,27.48764 35.76094,32.12416 7.66589,1.99671 59.36249,2.2863 61.30538,0.34341 0.8559,-0.85591 1.2,-7.12559 1.2,-21.86514 0,-19.33079 0.1326,-20.83372 2.05361,-23.27589 1.12949,-1.43592 3.71699,-3.03722 5.75,-3.55846 2.03301,-0.52124 14.79777,-0.86959 28.36613,-0.77411 24.62718,0.1733 24.67421,0.17779 27.25152,2.59934 1.41998,1.33416 3.02858,4.03416 3.57468,6 0.63352,2.28054 0.99492,50.36867 0.99848,132.85638 0.005,107.53089 -0.22609,129.83658 -1.3714,132.57768 -2.53888,6.07641 -5.30309,6.6402 -32.55627,6.6402 -25.90072,0 -29.21868,-0.52342 -32.43606,-5.11687 -1.38007,-1.97032 -1.63069,-5.50895 -1.63069,-23.02385 0,-11.38264 -0.27315,-21.40751 -0.60699,-22.27749 -0.53306,-1.38914 -3.91281,-1.57999 -27.75,-1.56701 -29.62373,0.0161 -35.12398,0.71082 -45.37678,5.73113 -10.9477,5.36056 -19.96344,15.81803 -24.40535,28.30806 -2.14503,6.03152 -2.32679,8.42879 -2.82666,37.27999 l -0.53422,30.83395 -3.26578,2.91605 -3.26578,2.91604 h -64.58422 -64.58422 z m 287.4,-73.8 c 1.623,-1.623 1.75584,-237.33843 0.13432,-238.34059 -1.30379,-0.80579 -23.74608,-1.46887 -25.60259,-0.75646 -1.90852,0.73236 -1.98974,238.86487 -0.0817,239.63477 2.74828,1.10896 24.35812,0.65416 25.55,-0.53772 z m -381.78609,28.44845 c -5.79878,-2.90838 -7.70115,-9.5836 -4.34864,-15.25894 1.97445,-3.34248 5.19189,-4.98951 9.74692,-4.98951 10.68307,0 13.80913,15.81991 4.04191,20.45476 -4.12886,1.95927 -5.16767,1.93657 -9.44019,-0.20631 z m 95.05867,-54.88331 c -6.64436,-8.44692 4.90645,-19.47702 12.47287,-11.91059 5.55365,5.55365 1.58031,14.54545 -6.42742,14.54545 -3.10089,0 -4.42777,-0.57831 -6.04545,-2.63486 z m 361.38766,-5.42944 c -4.22567,-1.22877 -11.14143,-7.39045 -13.51343,-12.03995 -5.92623,-11.61638 -1.16492,-26.22311 10.3677,-31.80596 5.52837,-2.67623 14.59677,-2.76748 20.24129,-0.20366 7.85701,3.56876 13.46228,12.87583 13.43443,22.30669 -0.0127,4.29099 -3.95554,12.57584 -7.61376,15.99823 -6.14753,5.75124 -15.14075,8.00566 -22.91623,5.74465 z m 69.22356,-0.38451 c -5.34139,-1.90498 -11.12607,-7.15122 -14.39068,-13.05119 -2.7255,-4.92568 -2.2797,-15.14081 0.89735,-20.56205 4.81066,-8.20876 11.76561,-12.26429 20.81243,-12.13602 13.03456,0.18482 23.02937,10.37139 22.97513,23.41595 -0.0285,6.86615 -2.57403,12.27024 -8.22239,17.45621 -6.615,6.07349 -14.08755,7.72466 -22.07184,4.8771 z m 70.54634,0.51617 c -8.75861,-2.20417 -15.67861,-10.52329 -16.81808,-20.21844 -1.68615,-14.34648 8.63766,-26.24636 22.65562,-26.11432 13.75932,0.12961 24.05854,11.9203 22.62629,25.90288 -0.28943,2.82562 -1.22584,6.49036 -2.08091,8.14388 -1.93914,3.74988 -6.95415,8.82655 -10.5628,10.69265 -3.5343,1.82766 -11.64362,2.6444 -15.82012,1.59335 z m -592.12007,-1.46286 c -8.40547,-4.6588 -5.97966,-17.00753 3.59322,-18.29153 3.72326,-0.49939 4.54628,-0.21724 7.24844,2.48491 8.11232,8.11233 -0.9323,21.29895 -10.84166,15.80662 z m 55.38993,-7.26613 c -10.30369,-5.43196 -13.31107,-16.92021 -6.9551,-26.56861 7.35743,-11.16864 24.25574,-9.92151 30.46433,2.24834 3.47612,6.81375 1.84391,16.18993 -3.68942,21.19376 -5.06388,4.5793 -14.3003,6.03632 -19.81981,3.12651 z m 120.5408,-29.95748 c -6.29486,-5.29679 -7.7844,-12.52325 -3.7908,-18.39106 3.54881,-5.21428 7.07649,-7.32316 12.25,-7.32316 10.67439,0 17.13633,11.40075 12.04375,21.24872 -3.70902,7.17245 -14.49427,9.52146 -20.50295,4.4655 z m -70.0408,-2.45756 c -5.51205,-2.48992 -11.46008,-8.08026 -14.28221,-13.42333 -3.03907,-5.75378 -2.94565,-17.22693 0.19313,-23.72068 6.62314,-13.70243 23.62843,-19.79975 36.84819,-13.21207 9.67706,4.82229 15.51568,14.21196 15.45797,24.85955 -0.0575,10.60675 -6.04376,20.31465 -15.4027,24.97841 -6.68968,3.33361 -16.10809,3.5475 -22.81438,0.51812 z M -816.49679,566.5441 c -4.3833,-2.36953 -6.46965,-4.50122 -8.71893,-8.9084 -5.46,-10.69817 3.40848,-24.74032 15.62503,-24.74032 12.76978,0 20.98375,12.70986 15.79488,24.44016 -3.73865,8.45185 -15.37158,13.1707 -22.70098,9.20856 z m 445.92005,-13.90049 c -4.5794,-1.99403 -10.25828,-7.35648 -12.69421,-11.98689 -2.98593,-5.67589 -2.97893,-15.52642 0.0151,-21.21889 4.22612,-8.03507 11.76852,-12.62579 20.74375,-12.62579 20.28193,0 31.0116,23.99005 17.3557,38.80495 -7.11748,7.72156 -17.33694,10.5464 -25.4203,7.02662 z m 69.07772,-0.44891 c -9.6445,-4.39648 -14.7,-12.00817 -14.7,-22.13266 0,-11.24403 7.30492,-20.35509 18.48859,-23.05987 13.95793,-3.37574 27.75205,8.22059 27.68944,23.27775 -0.0684,16.44151 -17.24778,28.4017 -31.47803,21.91478 z m 69,0 c -6.55654,-2.98882 -10.21463,-6.75818 -12.54267,-12.92416 -5.36225,-14.20233 1.6191,-28.32463 15.90374,-32.17109 9.75357,-2.62636 21.34236,2.90689 25.70278,12.27219 9.18,19.71682 -10.08565,41.47435 -29.06385,32.82306 z M -650.2585,537.63273 c -6.88914,-2.45831 -9.74052,-6.57728 -9.74052,-14.07069 0,-5.85043 2.04066,-9.77601 6.74298,-12.97132 7.03448,-4.78005 15.61351,-2.57511 20.98322,5.393 4.95227,7.34868 1.19038,17.89394 -7.64452,21.42896 -4.88161,1.95324 -5.45019,1.96534 -10.34116,0.22005 z m -133.95202,-12.46835 c -2.68377,-2.39795 -3.24305,-3.62279 -3.24305,-7.10234 0,-8.95639 11.26415,-13.58028 16.86565,-6.92327 3.71333,4.41304 3.57787,10.08815 -0.33418,14.00019 -3.98267,3.98267 -8.84907,3.99198 -13.28842,0.0254 z m -72.7885,-1.80857 c -4.60958,-1.68505 -9.00218,-8.27381 -8.99627,-13.49411 0.007,-6.5642 7.00267,-13.78762 13.36011,-13.79592 3.85826,-0.005 9.93937,3.54669 11.97623,6.99481 2.277,3.85466 2.11345,10.53157 -0.35584,14.52696 -3.12122,5.05024 -10.58262,7.74285 -15.98423,5.76826 z m -57.66709,-15.39106 c -5.91685,-1.71302 -10.76007,-10.07271 -9.57582,-16.52845 0.82435,-4.49376 4.16403,-8.45183 8.89841,-10.54607 5.90641,-2.61268 10.51201,-1.66067 15.3445,3.17181 4.81767,4.81768 5.78691,9.45053 3.19093,15.25235 -2.2217,4.96535 -4.40533,7.03268 -9.09016,8.60605 -3.87395,1.30104 -4.41755,1.30379 -8.76786,0.0443 z m 164.84994,-13.45713 c -13.56813,-6.86782 -15.52671,-24.91239 -3.81971,-35.19128 10.16921,-8.92868 26.05397,-6.1106 32.38697,5.7457 3.36763,6.30471 2.91449,15.88622 -1.03346,21.85198 -6.37057,9.62659 -17.46988,12.68769 -27.5338,7.5936 z m 380.27035,-6.77166 c -6.18076,-2.38142 -10.15518,-5.70925 -13.01647,-10.89881 -2.37466,-4.30694 -2.91106,-6.48248 -2.9226,-11.85353 -0.012,-5.59107 0.43613,-7.29818 2.98587,-11.37398 4.60929,-7.36805 10.17438,-10.8684 18.07962,-11.37177 8.61052,-0.54828 14.16488,1.59095 19.31134,7.43764 8.71117,9.89641 7.61505,24.46699 -2.50932,33.35631 -6.64106,5.83092 -14.58245,7.53453 -21.92844,4.70414 z m 69.13753,-0.24717 c -15.54322,-5.69494 -20.97795,-23.77405 -11.05378,-36.77135 6.18596,-8.10151 18.28217,-11.35923 27.54864,-7.41935 12.73155,5.41316 17.80189,22.3242 10.32115,34.42401 -2.29971,3.7197 -4.41038,5.55702 -9.27916,8.07743 -6.9254,3.58505 -11.23075,3.99977 -17.53685,1.68926 z m 70.10726,0.18651 c -13.09333,-4.86727 -19.15405,-16.65288 -15.32937,-29.80933 2.18668,-7.52191 9.08723,-14.09258 16.46085,-15.67394 10.65067,-2.28416 20.9312,2.5174 25.74985,12.02656 2.27088,4.48136 2.57329,6.15021 2.25535,12.44635 -0.30979,6.13462 -0.83836,7.94148 -3.38185,11.56042 -5.9786,8.50651 -17.20844,12.62695 -25.75483,9.44994 z m -630.40874,-46.86326 c -2.93069,-3.20196 -3.60737,-6.25608 -2.27833,-10.28309 2.66755,-8.08277 14.67369,-8.47096 17.94218,-0.58012 2.78473,6.72291 -1.80271,13.11321 -9.41365,13.11321 -3.06919,0 -4.742,-0.60219 -6.2502,-2.25 z m 103.58179,-8.75598 c -6.73012,-3.5563 -10.85088,-10.58466 -10.86547,-18.53213 -0.008,-4.37872 3.89134,-11.36612 8.30079,-14.87442 3.21527,-2.55816 4.84584,-3.08293 10.5,-3.3792 5.94809,-0.31167 7.16059,-0.0436 10.88597,2.40655 10.30412,6.77697 12.24349,21.39201 4.00994,30.21885 -5.64865,6.05568 -15.75817,7.89786 -22.83123,4.16035 z m -57.37104,-16.93938 c -5.44687,-2.22935 -7.70518,-9.3301 -4.78354,-15.04073 4.78094,-9.3448 18.29608,-7.16331 19.94643,3.21957 1.43485,9.02716 -6.62916,15.31395 -15.16289,11.82116 z m -52.75822,-29.27886 c -3.90502,-2.26337 -7.74178,-8.52336 -7.74178,-12.63134 0,-3.64599 3.85384,-10.08459 7.29033,-12.17993 3.88711,-2.37009 10.65683,-2.56031 14.80355,-0.41596 9.34,4.8299 9.14477,19.67712 -0.33474,25.45685 -4.22713,2.57731 -9.31842,2.49391 -14.01736,-0.22962 z"
             id="path27" />
          <path
             style="fill:#213498"
             d="m -727.99902,725.79521 c -6.3552,-2.23915 -6.99667,-5.02573 -6.99845,-30.40138 -8.5e-4,-12.19252 0.27347,-22.8849 0.6096,-23.76086 0.62447,-1.62733 15.81594,-12.57093 17.45048,-12.57093 0.50338,0 1.02068,10.49838 1.17027,23.75 l 0.2681,23.75 h 51.5 51.5 l 0.62272,-25 c 0.69322,-27.83012 1.4838,-32.02154 8.6765,-46 4.91686,-9.55553 18.11473,-22.7601 27.71711,-27.73118 14.25374,-7.37904 18.28936,-8.04089 52.98367,-8.68938 l 31,-0.57944 0.25689,-68.75 c 0.20426,-54.66465 -6.2e-4,-68.75293 -1,-68.76429 -0.69129,-0.008 -14.75689,-0.15642 -31.25689,-0.33013 -33.61617,-0.35391 -35.39003,-0.62992 -50.5,-7.85778 -11.65249,-5.57396 -24.99762,-18.69389 -30.30929,-29.7978 -6.36823,-13.31264 -6.94406,-16.7607 -7.59858,-45.5 l -0.59213,-26 -50.3863,-0.25932 c -35.93961,-0.18498 -50.77158,0.0604 -51.73004,0.85587 -1.02728,0.85257 -1.40731,5.91335 -1.6137,21.48915 l -0.26996,20.37394 -8.5,-6.07003 c -4.675,-3.33852 -8.86319,-6.71038 -9.30708,-7.49302 -0.44389,-0.78263 -0.66889,-10.67985 -0.5,-21.9938 l 0.30708,-20.57084 3.26577,-2.91597 3.26578,-2.91598 h 63.41912 c 37.88398,0 64.43088,0.38467 65.93193,0.95537 1.38204,0.52545 3.32383,2.1928 4.3151,3.70522 1.62047,2.47243 1.82031,5.67999 1.98081,31.79463 0.10576,17.20815 0.63686,31.0696 1.3032,34.0133 4.11146,18.16302 19.76171,33.72848 37.76937,37.56475 2.76019,0.58801 16.684,0.89758 33.24892,0.73921 l 28.5,-0.27248 0.50333,-21.5 c 0.27684,-11.825 0.89387,-22.30414 1.37119,-23.28698 2.07212,-4.26674 5.16297,-4.71302 32.64156,-4.71302 15.99918,0 26.86066,0.39885 28.03931,1.02965 5.16199,2.76261 4.94461,-3.37022 4.94461,139.49761 v 132.62659 l -2.92308,2.92307 -2.92308,2.92308 h -26.52987 c -16.73176,0 -27.39813,-0.3956 -28.88082,-1.07116 -4.83744,-2.20409 -5.21034,-3.98502 -5.74315,-27.42884 l -0.5,-22 -28.94026,-0.26565 c -24.14333,-0.22161 -29.85314,-2.6e-4 -34.44773,1.33542 -13.72872,3.99104 -24.75456,12.57698 -30.76663,23.95829 -5.92717,11.22059 -6.34482,14.10774 -6.35096,43.90344 -0.003,15.72091 -0.44326,28.64453 -1.04962,30.82796 -2.07253,7.46293 1.2529,7.10429 -68.82268,7.42251 -47.69815,0.2166 -63.45624,-0.01 -66.12212,-0.9488 z m 284.5,-195.23317 v -120 l -12.86055,-0.2807 c -8.62871,-0.18834 -13.31775,0.0987 -14.25,0.87244 -1.93748,1.60797 -2.09709,236.80062 -0.16201,238.7357 0.87468,0.87469 4.97003,1.14771 14.25,0.95 l 13.02256,-0.27744 z m -287.42742,92.86514 c -6.64436,-8.44692 4.90645,-19.47702 12.47287,-11.91059 5.55365,5.55365 1.58031,14.54545 -6.42742,14.54545 -3.10089,0 -4.42777,-0.57831 -6.04545,-2.63486 z m 361.38766,-5.42944 c -4.22567,-1.22877 -11.14143,-7.39045 -13.51343,-12.03995 -5.92623,-11.61638 -1.16492,-26.22311 10.3677,-31.80596 5.52837,-2.67623 14.59677,-2.76748 20.24129,-0.20366 7.85701,3.56876 13.46228,12.87583 13.43443,22.30669 -0.0127,4.29099 -3.95554,12.57584 -7.61376,15.99823 -6.14753,5.75124 -15.14075,8.00566 -22.91623,5.74465 z m 69.22356,-0.38451 c -5.34139,-1.90498 -11.12607,-7.15122 -14.39068,-13.05119 -2.7255,-4.92568 -2.2797,-15.14081 0.89735,-20.56205 4.81066,-8.20876 11.76561,-12.26429 20.81243,-12.13602 13.03456,0.18482 23.02937,10.37139 22.97513,23.41595 -0.0285,6.86615 -2.57403,12.27024 -8.22239,17.45621 -6.615,6.07349 -14.08755,7.72466 -22.07184,4.8771 z m 70.54634,0.51617 c -8.75861,-2.20417 -15.67861,-10.52329 -16.81808,-20.21844 -1.68615,-14.34648 8.63766,-26.24636 22.65562,-26.11432 13.75932,0.12961 24.05854,11.9203 22.62629,25.90288 -0.28943,2.82562 -1.22584,6.49036 -2.08091,8.14388 -1.93914,3.74988 -6.95415,8.82655 -10.5628,10.69265 -3.5343,1.82766 -11.64362,2.6444 -15.82012,1.59335 z m -592.12007,-1.46286 c -8.40547,-4.6588 -5.97966,-17.00753 3.59322,-18.29153 3.72326,-0.49939 4.54628,-0.21724 7.24844,2.48491 8.11232,8.11233 -0.9323,21.29895 -10.84166,15.80662 z m 55.38993,-7.26613 c -10.30369,-5.43196 -13.31107,-16.92021 -6.9551,-26.56861 7.35743,-11.16864 24.25574,-9.92151 30.46433,2.24834 3.47612,6.81375 1.84391,16.18993 -3.68942,21.19376 -5.06388,4.5793 -14.3003,6.03632 -19.81981,3.12651 z m 50.5,-32.41504 c -5.51205,-2.48992 -11.46008,-8.08026 -14.28221,-13.42333 -3.03907,-5.75378 -2.94565,-17.22693 0.19313,-23.72068 6.62314,-13.70243 23.62843,-19.79975 36.84819,-13.21207 9.67706,4.82229 15.51568,14.21196 15.45797,24.85955 -0.0575,10.60675 -6.04376,20.31465 -15.4027,24.97841 -6.68968,3.33361 -16.10809,3.5475 -22.81438,0.51812 z M -816.49679,566.5441 c -4.3833,-2.36953 -6.46965,-4.50122 -8.71893,-8.9084 -5.46,-10.69817 3.40848,-24.74032 15.62503,-24.74032 12.76978,0 20.98375,12.70986 15.79488,24.44016 -3.73865,8.45185 -15.37158,13.1707 -22.70098,9.20856 z m 445.92005,-13.90049 c -4.5794,-1.99403 -10.25828,-7.35648 -12.69421,-11.98689 -2.98593,-5.67589 -2.97893,-15.52642 0.0151,-21.21889 4.22612,-8.03507 11.76852,-12.62579 20.74375,-12.62579 20.28193,0 31.0116,23.99005 17.3557,38.80495 -7.11748,7.72156 -17.33694,10.5464 -25.4203,7.02662 z m 69.07772,-0.44891 c -9.6445,-4.39648 -14.7,-12.00817 -14.7,-22.13266 0,-11.24403 7.30492,-20.35509 18.48859,-23.05987 13.95793,-3.37574 27.75205,8.22059 27.68944,23.27775 -0.0684,16.44151 -17.24778,28.4017 -31.47803,21.91478 z m 69,0 c -6.55654,-2.98882 -10.21463,-6.75818 -12.54267,-12.92416 -5.36225,-14.20233 1.6191,-28.32463 15.90374,-32.17109 9.75357,-2.62636 21.34236,2.90689 25.70278,12.27219 9.18,19.71682 -10.08565,41.47435 -29.06385,32.82306 z M -650.2585,537.63273 c -6.88914,-2.45831 -9.74052,-6.57728 -9.74052,-14.07069 0,-5.85043 2.04066,-9.77601 6.74298,-12.97132 7.03448,-4.78005 15.61351,-2.57511 20.98322,5.393 4.95227,7.34868 1.19038,17.89394 -7.64452,21.42896 -4.88161,1.95324 -5.45019,1.96534 -10.34116,0.22005 z m -264.40761,-29.66798 c -5.91685,-1.71302 -10.76007,-10.07271 -9.57582,-16.52845 0.82435,-4.49376 4.16403,-8.45183 8.89841,-10.54607 5.90641,-2.61268 10.51201,-1.66067 15.3445,3.17181 4.81767,4.81768 5.78691,9.45053 3.19093,15.25235 -2.2217,4.96535 -4.40533,7.03268 -9.09016,8.60605 -3.87395,1.30104 -4.41755,1.30379 -8.76786,0.0443 z m 545.12029,-20.22879 c -6.18076,-2.38142 -10.15518,-5.70925 -13.01647,-10.89881 -2.37466,-4.30694 -2.91106,-6.48248 -2.9226,-11.85353 -0.012,-5.59107 0.43613,-7.29818 2.98587,-11.37398 4.60929,-7.36805 10.17438,-10.8684 18.07962,-11.37177 8.61052,-0.54828 14.16488,1.59095 19.31134,7.43764 8.71117,9.89641 7.61505,24.46699 -2.50932,33.35631 -6.64106,5.83092 -14.58245,7.53453 -21.92844,4.70414 z m 69.13753,-0.24717 c -15.54322,-5.69494 -20.97795,-23.77405 -11.05378,-36.77135 6.18596,-8.10151 18.28217,-11.35923 27.54864,-7.41935 12.73155,5.41316 17.80189,22.3242 10.32115,34.42401 -2.29971,3.7197 -4.41038,5.55702 -9.27916,8.07743 -6.9254,3.58505 -11.23075,3.99977 -17.53685,1.68926 z m 70.10726,0.18651 c -13.09333,-4.86727 -19.15405,-16.65288 -15.32937,-29.80933 2.18668,-7.52191 9.08723,-14.09258 16.46085,-15.67394 10.65067,-2.28416 20.9312,2.5174 25.74985,12.02656 2.27088,4.48136 2.57329,6.15021 2.25535,12.44635 -0.30979,6.13462 -0.83836,7.94148 -3.38185,11.56042 -5.9786,8.50651 -17.20844,12.62695 -25.75483,9.44994 z m -630.40874,-46.86326 c -2.93069,-3.20196 -3.60737,-6.25608 -2.27833,-10.28309 2.66755,-8.08277 14.67369,-8.47096 17.94218,-0.58012 2.78473,6.72291 -1.80271,13.11321 -9.41365,13.11321 -3.06919,0 -4.742,-0.60219 -6.2502,-2.25 z m 103.58179,-8.75598 c -6.73012,-3.5563 -10.85088,-10.58466 -10.86547,-18.53213 -0.008,-4.37872 3.89134,-11.36612 8.30079,-14.87442 3.21527,-2.55816 4.84584,-3.08293 10.5,-3.3792 5.94809,-0.31167 7.16059,-0.0436 10.88597,2.40655 10.30412,6.77697 12.24349,21.39201 4.00994,30.21885 -5.64865,6.05568 -15.75817,7.89786 -22.83123,4.16035 z m -110.12926,-46.21824 c -3.90502,-2.26337 -7.74178,-8.52336 -7.74178,-12.63134 0,-3.64599 3.85384,-10.08459 7.29033,-12.17993 3.88711,-2.37009 10.65683,-2.56031 14.80355,-0.41596 9.34,4.8299 9.14477,19.67712 -0.33474,25.45685 -4.22713,2.57731 -9.31842,2.49391 -14.01736,-0.22962 z"
             id="path26" />
          <path
             style="fill:#363e40"
             d="m -727.99902,725.79521 c -6.3552,-2.23915 -6.99667,-5.02573 -6.99845,-30.40138 -8.5e-4,-12.19252 0.27347,-22.8849 0.6096,-23.76086 0.62447,-1.62733 15.81594,-12.57093 17.45048,-12.57093 0.50338,0 1.02068,10.49838 1.17027,23.75 l 0.2681,23.75 h 51.5 51.5 l 0.62272,-25 c 0.69322,-27.83012 1.4838,-32.02154 8.6765,-46 4.91686,-9.55553 18.11473,-22.7601 27.71711,-27.73118 14.25374,-7.37904 18.28936,-8.04089 52.98367,-8.68938 l 31,-0.57944 0.25689,-68.75 c 0.20426,-54.66465 -6.2e-4,-68.75293 -1,-68.76429 -0.69129,-0.008 -14.75689,-0.15642 -31.25689,-0.33013 -33.61617,-0.35391 -35.39003,-0.62992 -50.5,-7.85778 -11.65249,-5.57396 -24.99762,-18.69389 -30.30929,-29.7978 -6.36823,-13.31264 -6.94406,-16.7607 -7.59858,-45.5 l -0.59213,-26 -50.3863,-0.25932 c -35.93961,-0.18498 -50.77158,0.0604 -51.73004,0.85587 -1.02728,0.85257 -1.40731,5.91335 -1.6137,21.48915 l -0.26996,20.37394 -8.5,-6.07003 c -4.675,-3.33852 -8.86319,-6.71038 -9.30708,-7.49302 -0.44389,-0.78263 -0.66889,-10.67985 -0.5,-21.9938 l 0.30708,-20.57084 3.26577,-2.91597 3.26578,-2.91598 h 63.41912 c 37.88398,0 64.43088,0.38467 65.93193,0.95537 1.38204,0.52545 3.32383,2.1928 4.3151,3.70522 1.62047,2.47243 1.82031,5.67999 1.98081,31.79463 0.10576,17.20815 0.63686,31.0696 1.3032,34.0133 4.11146,18.16302 19.76171,33.72848 37.76937,37.56475 2.76019,0.58801 16.684,0.89758 33.24892,0.73921 l 28.5,-0.27248 0.50333,-21.5 c 0.27684,-11.825 0.89387,-22.30414 1.37119,-23.28698 2.07212,-4.26674 5.16297,-4.71302 32.64156,-4.71302 15.99918,0 26.86066,0.39885 28.03931,1.02965 5.16199,2.76261 4.94461,-3.37022 4.94461,139.49761 v 132.62659 l -2.92308,2.92307 -2.92308,2.92308 h -26.52987 c -16.73176,0 -27.39813,-0.3956 -28.88082,-1.07116 -4.83744,-2.20409 -5.21034,-3.98502 -5.74315,-27.42884 l -0.5,-22 -28.94026,-0.26565 c -24.14333,-0.22161 -29.85314,-2.6e-4 -34.44773,1.33542 -13.72872,3.99104 -24.75456,12.57698 -30.76663,23.95829 -5.92717,11.22059 -6.34482,14.10774 -6.35096,43.90344 -0.003,15.72091 -0.44326,28.64453 -1.04962,30.82796 -2.07253,7.46293 1.2529,7.10429 -68.82268,7.42251 -47.69815,0.2166 -63.45624,-0.01 -66.12212,-0.9488 z m 284.5,-195.23317 v -120 l -12.86055,-0.2807 c -8.62871,-0.18834 -13.31775,0.0987 -14.25,0.87244 -1.93748,1.60797 -2.09709,236.80062 -0.16201,238.7357 0.87468,0.87469 4.97003,1.14771 14.25,0.95 l 13.02256,-0.27744 z"
             id="path25" />
        </g>
      </g>
    </g>
  </g>
</svg>
